<svg width="82" height="64" viewBox="0 0 82 64" fill="none" xmlns="http://www.w3.org/2000/svg">
<path d="M68.859 3.64228V7.28455L65.4423 9.88618L63.3397 13.0081L60.4487 18.4715L55.7179 20.5528L54.4038 26.0163H55.7179V23.4146L59.1346 20.5528H62.2885L64.391 23.4146L61.2372 30.1789L59.1346 30.9593L62.2885 32.7805L60.4487 40.5854V45.5285L62.2885 50.7317L64.391 51.7724L66.2308 46.3089H62.2885V39.8049H64.391V43.4472H65.4423V39.8049L67.5449 38.7642L68.3333 36.9431H66.2308L65.4423 28.3577L67.5449 24.1951L64.391 20.5528L65.4423 11.4472L71.2244 7.80488L78.3205 4.42276L82 21.5935L80.9487 45.5285V61.3984H72.2756L63.3397 63.2195L61.2372 59.5772H53.6154L54.4038 60.3577H61.2372L62.2885 64H48.8846L45.9936 55.935L44.4167 44.748L43.6282 30.9593L39.4231 3.64228L66.2308 0V3.64228H68.859Z" fill="#ECECEC"/>
<path d="M41.5256 32L36.7949 3.64228L0 22.374L1.57692 28.3577V43.4472H2.62821L3.15385 40.5854L19.4487 40.065L22.8654 37.9837L30.2244 38.7642L31.8013 35.6423L34.4295 38.7642H36.7949L38.8974 37.9837V40.065L40.7372 39.8049V44.748H42.5769L41.5256 32Z" fill="#ECECEC"/>
<path d="M44.4167 55.935L42.5769 46.3089L39.4231 45.5285H36.7949L31.8013 43.4472L28.6474 44.748L26.5449 51.7724L25.4936 61.9187L32.5897 63.2195L47.0449 64L44.4167 55.935Z" fill="#ECECEC"/>
<path d="M25.2308 52.5528L27.5962 42.1463L25.4936 41.2213V38.7642H22.8654L19.4487 41.1057H3.94231L3.15385 44.748L1.57692 45.5285L2.62821 55.935H10.5128L19.4487 60.3577L24.7051 61.3984L25.2308 52.5528Z" fill="#ECECEC"/>
<path d="M46 56.5L43.5 38L62 33.5L60.5 40L60 45L62.5 50.5L64 51.5L66 46.5L62.5 46L62 40H64.5V43.5H65.5V39.5L67.5 39L81 38V61.5H72.5L63.5 63L61.5 59.5H53.5L54.5 60.5H61L62 64H49L46 56.5Z" fill="black"/>
</svg>
